<?xml version="1.0" encoding="utf-8"?>
<!-- Generator: Adobe Illustrator 22.0.1, SVG Export Plug-In . SVG Version: 6.00 Build 0)  -->
<svg version="1.1" id="Layer_2" xmlns="http://www.w3.org/2000/svg" xmlns:xlink="http://www.w3.org/1999/xlink" x="0px" y="0px"
	 viewBox="0 0 24 24" style="enable-background:new 0 0 24 24;" xml:space="preserve">
<style type="text/css">
	.st0{fill:#1D1D1D;}
	.st1{fill:none;}
	.st2{fill:none;stroke:#000000;stroke-width:2;stroke-linecap:round;stroke-linejoin:round;stroke-miterlimit:10;}
	.st3{display:none;}
	.st4{fill:#020202;}
	.st5{display:inline;fill:#0000FF;}
	.st6{fill:none;stroke:#000000;stroke-width:2;stroke-miterlimit:10;}
	.st7{display:inline;}
	.st8{fill:#FF0000;}
	.st9{fill:#FFFFFF;}
</style>
<g id="health">
	<g id="border">
		<path d="M12.2,2H4.4C3.1,2,2,3.1,2,4.4V9c0,0.6,0.4,1,1,1s1-0.4,1-1V5.4C4,4.6,4.7,4,5.4,4h6.8C12.1,3.7,12,3.4,12,3
			S12.1,2.3,12.2,2z"/>
		<path d="M2,15v4.6C2,20.9,3.1,22,4.4,22h15.2c1.3,0,2.4-1.1,2.4-2.4V4.4C22,3.1,21,2,19.6,2h-1.8C17.9,2.3,18,2.6,18,3
			s-0.1,0.7-0.2,1h0.8C19.4,4,20,4.6,20,5.4v13.2c0,0.8-0.6,1.4-1.4,1.4H5.4C4.7,20,4,19.4,4,18.6V15"/>
		<path d="M4,12H3c-0.6,0-1,0.4-1,1v2h2V12z"/>
	</g>
	<circle id="dot_1_" cx="15" cy="3" r="1"/>
	<polyline id="pulse" class="st2" points="3,13 7,13 9,9 11,15 13,13 17,13 	"/>
</g>
<g id="Layer_4">
</g>
</svg>
