<?xml version="1.0" encoding="utf-8"?>
<!-- Generator: Adobe Illustrator 22.0.1, SVG Export Plug-In . SVG Version: 6.00 Build 0)  -->
<svg version="1.1" id="Layer_2" xmlns="http://www.w3.org/2000/svg" xmlns:xlink="http://www.w3.org/1999/xlink" x="0px" y="0px"
	 viewBox="0 0 24 24" style="enable-background:new 0 0 24 24;" xml:space="preserve">
<style type="text/css">
	.st0{fill:#1D1D1D;}
	.st1{fill:none;}
	.st2{display:none;}
	.st3{fill:#020202;}
	.st4{display:inline;fill:#0000FF;}
	.st5{fill:none;stroke:#000000;stroke-width:2;stroke-miterlimit:10;}
	.st6{display:inline;}
	.st7{fill:#FF0000;}
	.st8{fill:#FFFFFF;}
</style>
<g id="messages">
	<path id="Border" d="M20,3H4C2.9,3,2,3.9,2,5v12c0,1.1,0.9,0,2,0H2c0,1,0,0.4,0,1v3c0,0.8,1,1.3,1.6,0.8l5.2-4.3
		c0.4-0.3,0.8-0.5,1.3-0.5H20c1.1,0,2-0.9,2-2V5C22,3.9,21.1,3,20,3z M20,14c0,0.6-0.4,1-1,1H9.4c-0.5,0-0.9,0.2-1.3,0.5l-3.3,2.7
		c-0.3,0.3-0.8,0-0.8-0.4V16c0-0.6,0-1,0-2v1c0-1,0,0,0-1V6c0-0.6,0.4-1,1-1h14c0.6,0,1,0.4,1,1V14z"/>
	<path id="small-line" d="M11,11H7c-0.6,0-1,0.4-1,1c0,0.6,0.4,1,1,1h4c0.6,0,1-0.4,1-1C12,11.4,11.6,11,11,11z"/>
	<path id="line" d="M13,7H7C6.4,7,6,7.4,6,8c0,0.6,0.4,1,1,1h6c0.6,0,1-0.4,1-1C14,7.4,13.6,7,13,7z"/>
	<circle id="message-dot" cx="17" cy="8" r="1"/>
</g>
<g id="Layer_4">
</g>
</svg>
