<?xml version="1.0" encoding="utf-8"?>
<!-- Generator: Adobe Illustrator 22.0.1, SVG Export Plug-In . SVG Version: 6.00 Build 0)  -->
<svg version="1.1" id="Layer_2" xmlns="http://www.w3.org/2000/svg" xmlns:xlink="http://www.w3.org/1999/xlink" x="0px" y="0px"
	 viewBox="0 0 24 24" style="enable-background:new 0 0 24 24;" xml:space="preserve">
<style type="text/css">
	.st0{fill:#1D1D1D;}
	.st1{fill:none;}
	.st2{display:none;}
	.st3{fill:#020202;}
	.st4{display:inline;fill:#0000FF;}
	.st5{fill:none;stroke:#000000;stroke-width:2;stroke-miterlimit:10;}
	.st6{display:inline;}
	.st7{fill:#FF0000;}
	.st8{fill:#FFFFFF;}
</style>
<g id="Layer_4">
</g>
<g id="iPhone_1_">
	<path id="iPhone" d="M17,2H7C5.9,2,5,2.9,5,4v16c0,1.1,0.9,2,2,2h10c1.1,0,2-0.9,2-2v-5.8v-0.4V4C19,2.9,18.1,2,17,2z M12,21
		c-0.6,0-1-0.4-1-1s0.4-1,1-1s1,0.4,1,1S12.6,21,12,21z M17,13.8v0.4V17c0,0.6-0.4,1-1,1H8c-0.6,0-1-0.4-1-1V5c0-0.6,0.4-1,1-1h8
		c0.6,0,1,0.4,1,1V13.8z"/>
	<circle id="phone-dot_1" cx="10" cy="6" r="1"/>
	<circle id="phone-dot-2" cx="15" cy="10" r="1"/>
	<circle id="phone-dot-3" cx="11" cy="15" r="1"/>
</g>
</svg>
