<svg xmlns="http://www.w3.org/2000/svg" viewBox="0 0 24 24">
  <style>
    .st0{display:none}.st2{fill:#ff1d25}
  </style>
  <g id="Layer_1" class="st0">
    <path class="st2" d="M20 4v16H4V4h16m2-2H2v20h20V2z"/>
    <path class="st2" d="M16 8v8H8V8h8m2-2H6v12h12V6z"/>
    <path class="st2" d="M14 10h-4v4h4v-4z"/>
  </g>
  <g id="Layer_2">
    <g id="scale">
      <path id="corner" d="M8 22H4c-1.1 0-2-.9-2-2v-4c0-1.1.9-2 2-2h4c1.1 0 2 .9 2 2v4c0 1.1-.9 2-2 2zm-3-2h2c.6 0 1-.4 1-1v-2c0-.6-.4-1-1-1H5c-.6 0-1 .4-1 1v2c0 .6.4 1 1 1z"/>
      <path id="expand" d="M22 20c0 1.1-.9 2-2 2h-7c-.6 0-1-.4-1-1s.4-1 1-1h6c.6 0 1-.4 1-1V5c0-.6-.4-1-1-1H5c-.6 0-1 .4-1 1v6c0 .6-.4 1-1 1s-1-.4-1-1V4c0-1.1.9-2 2-2h16c1.1 0 2 .9 2 2v16z"/>
      <path id="arrow" d="M17 8.1c0-.1 0-.1 0 0 0-.3-.1-.6-.3-.8-.2-.2-.5-.3-.7-.3h-2.5c-.6 0-1 .4-1 1s.4 1 1 1h.1l-2.5 2.5c-.4.4-.4 1 0 1.4s1 .4 1.4 0l2.5-2.5v.1c0 .6.4 1 1 1s1-.4 1-1V8.1z"/>
    </g>
  </g>
</svg>
