<?xml version="1.0" encoding="utf-8"?>
<!-- Generator: Adobe Illustrator 22.0.1, SVG Export Plug-In . SVG Version: 6.00 Build 0)  -->
<svg version="1.1" id="Layer_2" xmlns="http://www.w3.org/2000/svg" xmlns:xlink="http://www.w3.org/1999/xlink" x="0px" y="0px"
	 viewBox="0 0 24 24" style="enable-background:new 0 0 24 24;" xml:space="preserve">
<style type="text/css">
	.st0{fill:#1D1D1D;}
	.st1{fill:none;}
	.st2{fill:none;stroke:#000000;stroke-width:2;stroke-linecap:round;stroke-linejoin:round;stroke-miterlimit:10;}
	.st3{display:none;}
	.st4{fill:#020202;}
	.st5{display:inline;fill:#0000FF;}
	.st6{fill:none;stroke:#000000;stroke-width:2;stroke-miterlimit:10;}
	.st7{display:inline;}
	.st8{fill:#FF0000;}
	.st9{fill:#FFFFFF;}
</style>
<g id="Layer_4">
</g>
<g id="settings">
	<g id="_x31_">
		<path id="bar1" d="M5,20L5,20c-0.6,0-1-0.4-1-1V5c0-0.6,0.4-1,1-1h0c0.6,0,1,0.4,1,1v14C6,19.6,5.6,20,5,20z"/>
		<circle id="control1" cx="5" cy="16" r="3"/>
		<circle id="dot1" class="st9" cx="5" cy="16" r="1"/>
	</g>
	<g id="_x32_">
		<path id="bar1_1_" d="M12,20L12,20c-0.6,0-1-0.4-1-1V5c0-0.6,0.4-1,1-1h0c0.6,0,1,0.4,1,1v14C13,19.6,12.6,20,12,20z"/>
		<circle id="control1_1_" cx="12" cy="8" r="3"/>
		<circle id="dot1_1_" class="st9" cx="12" cy="8" r="1"/>
	</g>
	<g id="_x33_">
		<path id="bar1_2_" d="M19,20L19,20c-0.6,0-1-0.4-1-1V5c0-0.6,0.4-1,1-1h0c0.6,0,1,0.4,1,1v14C20,19.6,19.6,20,19,20z"/>
		<circle id="control1_2_" cx="19" cy="16" r="3"/>
		<circle id="dot1_2_" class="st9" cx="19" cy="16" r="1"/>
	</g>
</g>
</svg>
