<svg id="Layer_2" xmlns="http://www.w3.org/2000/svg" viewBox="0 0 24 24">
  <style>
  </style>
  <g id="target">
    <path id="outside" d="M12 22C6.5 22 2 17.5 2 12S6.5 2 12 2s10 4.5 10 10-4.5 10-10 10zm0-18c-4.4 0-8 3.6-8 8s3.6 8 8 8 8-3.6 8-8-3.6-8-8-8z"/>
    <path id="inside" d="M12 18c-3.3 0-6-2.7-6-6s2.7-6 6-6 6 2.7 6 6-2.7 6-6 6zm0-10c-2.2 0-4 1.8-4 4s1.8 4 4 4 4-1.8 4-4-1.8-4-4-4z"/>
    <circle id="dot" cx="12" cy="12" r="1"/>
    <path id="round" d="M12 12l4.1-6.8s1.4.4 2.6 2.6L12 12z"/>
  </g>
</svg>
